<svg width="20" height="20" viewBox="0 0 20 20" fill="none" xmlns="http://www.w3.org/2000/svg">
<path d="M6.41309 9.21289C6.95039 9.21289 7.38672 9.64983 7.38672 10.1855C7.38648 10.7226 6.95024 11.1592 6.41309 11.1592C5.87601 11.1591 5.43969 10.7226 5.43945 10.1855C5.43945 9.64989 5.87587 9.21299 6.41309 9.21289ZM10.1992 9.21289C10.7364 9.21303 11.1729 9.64992 11.1729 10.1855C11.1726 10.7226 10.7363 11.159 10.1992 11.1592C9.66206 11.1592 9.22582 10.7226 9.22559 10.1855C9.22559 9.64983 9.66192 9.21289 10.1992 9.21289ZM13.9844 9.21289C14.5217 9.21289 14.959 9.64983 14.959 10.1855C14.9587 10.7226 14.5215 11.1592 13.9844 11.1592C13.4474 11.159 13.011 10.7225 13.0107 10.1855C13.0107 9.64997 13.4473 9.21312 13.9844 9.21289Z" fill="url(#paint0_linear_2951_2541)"/>
<path fill-rule="evenodd" clip-rule="evenodd" d="M10.017 1.6665C5.17533 1.6665 1.66699 5.6216 1.66699 10.0124C1.66699 11.4145 2.07533 12.8575 2.79199 14.1761C2.92533 14.3939 2.94199 14.6685 2.85033 14.9281L2.29199 16.7975C2.16699 17.2482 2.55033 17.5812 2.97533 17.4477L4.65866 16.9478C5.11699 16.7975 5.47533 16.9887 5.90033 17.2482C7.11699 17.9651 8.63366 18.3332 10.0003 18.3332C14.1337 18.3332 18.3337 15.1367 18.3337 9.98732C18.3337 5.54649 14.7503 1.6665 10.017 1.6665Z" stroke="url(#paint1_linear_2951_2541)" stroke-width="1.5" stroke-linecap="round" stroke-linejoin="round"/>
<defs>
<linearGradient id="paint0_linear_2951_2541" x1="14.959" y1="11.1592" x2="5.34487" y2="10.3801" gradientUnits="userSpaceOnUse">
<stop stop-color="#888BF4"/>
<stop offset="1" stop-color="#5151C6"/>
</linearGradient>
<linearGradient id="paint1_linear_2951_2541" x1="18.3337" y1="18.3332" x2="1.39551" y2="18.0525" gradientUnits="userSpaceOnUse">
<stop stop-color="#888BF4"/>
<stop offset="1" stop-color="#5151C6"/>
</linearGradient>
</defs>
</svg>
